<?xml version="1.0"?>
<svg width="640" height="480" xmlns="http://www.w3.org/2000/svg" xmlns:svg="http://www.w3.org/2000/svg" xmlns:xlink="http://www.w3.org/1999/xlink">
 <!-- Created with SVG-edit - https://github.com/SVG-Edit/svgedit-->
 <defs>
  <symbol height="20" id="svg_4" viewBox="0 0 22 20" width="22" xmlns="http://www.w3.org/2000/svg">
   <path clip-rule="evenodd" d="m1.87,9.6c-1.07,-3.35 0.18,-7.18 3.7,-8.31c1.85,-0.6 3.89,-0.25 5.43,0.91c1.45,-1.13 3.57,-1.51 5.42,-0.91c3.52,1.13 4.78,4.96 3.71,8.31c-1.67,5.31 -9.13,9.4 -9.13,9.4c0,0 -7.4,-4.03 -9.13,-9.4z" fill-rule="evenodd" stroke="#3E4554" stroke-linecap="round" stroke-linejoin="round" stroke-width="1.5"/>
   <path clip-rule="evenodd" d="m1.87,9.6c-1.07,-3.35 0.18,-7.18 3.7,-8.31c1.85,-0.6 3.89,-0.25 5.43,0.91c1.45,-1.13 3.57,-1.51 5.42,-0.91c3.52,1.13 4.78,4.96 3.71,8.31c-1.67,5.31 -9.13,9.4 -9.13,9.4c0,0 -7.4,-4.03 -9.13,-9.4z" fill-rule="evenodd" stroke="black" stroke-linecap="round" stroke-linejoin="round" stroke-opacity="0.2" stroke-width="1.5"/>
   <g opacity="0.4">
    <path d="m15,4.7c1.07,0.35 1.83,1.3 1.92,2.42" stroke="#3E4554" stroke-linecap="round" stroke-linejoin="round" stroke-width="1.5"/>
    <path d="m15,4.7c1.07,0.35 1.83,1.3 1.92,2.42" stroke="black" stroke-linecap="round" stroke-linejoin="round" stroke-opacity="0.2" stroke-width="1.5"/>
   </g>
  </symbol>
 </defs>
 <g class="layer">
  <title>Layer 1</title>
  <use fill="#f9b023" id="svg_5" transform="matrix(7.27273 0 0 7.27273 0 0)" x="27.78" xlink:href="#svg_4" y="14.44"/>
 </g>
</svg>