<svg width="219" height="83" viewBox="0 0 219 83" fill="none" xmlns="http://www.w3.org/2000/svg">
<path d="M0.5 80.89H55.94V66.81H23.71L41.42 51.3C44.5733 48.55 47.2317 46.0933 49.395 43.93C51.5583 41.73 53.19 39.3467 54.29 36.78C55.39 34.1767 55.94 30.9133 55.94 26.99C55.94 21.6733 54.7667 16.9983 52.42 12.965C50.0733 8.93166 46.8467 5.79666 42.74 3.55999C38.67 1.28666 34.05 0.149998 28.88 0.149998C23.2333 0.149998 18.2833 1.23167 14.03 3.395C9.77667 5.55833 6.45833 8.61999 4.075 12.58C1.69167 16.54 0.5 21.2333 0.5 26.66H15.9C15.8267 24.46 16.3217 22.425 17.385 20.555C18.4483 18.6483 19.9333 17.1267 21.84 15.99C23.7833 14.8167 26.02 14.23 28.55 14.23C32.18 14.23 35.0767 15.4217 37.24 17.805C39.44 20.1517 40.54 23.14 40.54 26.77C40.54 28.4567 40.0267 30.2717 39 32.215C37.9733 34.1583 36.2133 36.23 33.72 38.43L0.5 67.91V80.89ZM92.6267 82.65C97.6134 82.65 102.233 81.4767 106.487 79.13C110.74 76.7467 114.168 73.5567 116.772 69.56C119.375 65.5267 120.677 61.0167 120.677 56.03C120.677 51.0433 119.595 46.625 117.432 42.775C115.305 38.8883 112.335 35.845 108.522 33.645C104.745 31.4083 100.363 30.29 95.3767 30.29C93.6534 30.29 91.8201 30.51 89.8767 30.95C87.9334 31.39 86.0817 32.0867 84.3217 33.04L85.4217 15.77H115.397V1.8H72.1667L69.7467 43.93L82.3967 47.78C83.2767 46.9367 84.5967 46.0567 86.3567 45.14C88.1167 44.1867 90.3901 43.71 93.1767 43.71C95.4501 43.71 97.5217 44.26 99.3917 45.36C101.298 46.46 102.802 47.945 103.902 49.815C105.038 51.685 105.607 53.7567 105.607 56.03C105.607 58.3033 105.038 60.375 103.902 62.245C102.802 64.115 101.298 65.6 99.3917 66.7C97.5217 67.8 95.4501 68.35 93.1767 68.35C90.6101 68.35 88.1717 67.525 85.8617 65.875C83.5517 64.225 82.0301 62.0067 81.2967 59.22L66.8867 63.07C67.9867 66.9567 69.8017 70.3667 72.3317 73.3C74.8617 76.2333 77.8684 78.525 81.3517 80.175C84.8717 81.825 88.6301 82.65 92.6267 82.65ZM152.562 39.75C156.192 39.75 159.492 38.87 162.462 37.11C165.469 35.3133 167.87 32.93 169.667 29.96C171.464 26.9533 172.362 23.6167 172.362 19.95C172.362 16.2833 171.464 12.965 169.667 9.995C167.87 6.98833 165.469 4.605 162.462 2.84499C159.492 1.04833 156.192 0.149998 152.562 0.149998C149.042 0.149998 145.779 1.04833 142.772 2.84499C139.765 4.64166 137.345 7.04333 135.512 10.05C133.679 13.0567 132.762 16.3567 132.762 19.95C132.762 23.6167 133.66 26.9533 135.457 29.96C137.254 32.93 139.637 35.3133 142.607 37.11C145.614 38.87 148.932 39.75 152.562 39.75ZM145.962 81L215.262 11.81L205.362 1.8L136.062 71.1L145.962 81ZM152.562 27.1C150.655 27.1 148.987 26.385 147.557 24.955C146.127 23.525 145.412 21.8567 145.412 19.95C145.412 18.0067 146.127 16.3383 147.557 14.945C148.987 13.515 150.655 12.8 152.562 12.8C154.505 12.8 156.174 13.515 157.567 14.945C158.997 16.3383 159.712 18.0067 159.712 19.95C159.712 21.8567 158.997 23.525 157.567 24.955C156.174 26.385 154.505 27.1 152.562 27.1ZM198.762 82.65C202.392 82.65 205.692 81.77 208.662 80.01C211.669 78.2133 214.07 75.83 215.867 72.86C217.664 69.8533 218.562 66.5167 218.562 62.85C218.562 59.1833 217.664 55.865 215.867 52.895C214.07 49.8883 211.669 47.505 208.662 45.745C205.692 43.9483 202.392 43.05 198.762 43.05C195.242 43.05 191.979 43.9483 188.972 45.745C185.965 47.5417 183.545 49.9433 181.712 52.95C179.879 55.9567 178.962 59.2567 178.962 62.85C178.962 66.5167 179.842 69.8533 181.602 72.86C183.399 75.83 185.8 78.2133 188.807 80.01C191.814 81.77 195.132 82.65 198.762 82.65ZM198.762 70C196.855 70 195.187 69.285 193.757 67.855C192.327 66.425 191.612 64.7567 191.612 62.85C191.612 60.9067 192.327 59.2383 193.757 57.845C195.187 56.415 196.855 55.7 198.762 55.7C200.705 55.7 202.374 56.415 203.767 57.845C205.197 59.2383 205.912 60.9067 205.912 62.85C205.912 64.7567 205.197 66.425 203.767 67.855C202.374 69.285 200.705 70 198.762 70Z" fill="#FAFBFD"/>
</svg>
